<svg width="1012.0000000000001" height="506.00000000000006" xmlns="http://www.w3.org/2000/svg">

 <g>
  <title>Layer 1</title>
  <path stroke="#000" id="svg_6" d="m429.7835,83.38562c-19.9923,0 -34.36252,17.23753 -34.36252,43.09699c0,23.00664 13.97246,43.90302 34.36519,43.90302c20.58761,0 34.63482,-20.89003 34.63482,-43.90302c0,-26.06573 -14.82671,-43.09699 -34.63749,-43.09699zm-0.00534,77.75293l0,0c-6.11061,0 -9.31675,-5.11223 -11.00124,-12.04596c-0.75815,-3.29074 -1.22266,-6.93373 -1.50296,-10.60209c-0.30433,-4.36016 -0.34437,-8.79964 -0.34437,-12.78217c0,-3.15112 0.04805,-6.28002 0.19755,-9.28516c0.33102,-5.48351 1.03045,-10.88769 2.3759,-15.3367c1.85267,-5.45178 4.99474,-8.95514 10.27512,-8.95514c6.67389,0 10.04554,5.65487 11.706,13.71513c1.14524,6.01029 1.49495,13.08681 1.49495,19.90947c0,7.29549 -0.27496,16.35217 -2.03687,23.61592c-1.76458,6.78775 -5.0508,11.76671 -11.16408,11.76671z" stroke-dasharray="2,2" stroke-width="0" fill="#000000"/>
  <path stroke="#000" id="svg_10" d="m431.01427,271.001c-19.99231,0 -34.36253,17.23753 -34.36253,43.097c0,23.00664 13.97246,43.90302 34.3652,43.90302c20.58761,0 34.63481,-20.89004 34.63481,-43.90302c0,-26.06573 -14.82671,-43.097 -34.63748,-43.097zm-0.00534,77.75293l0,0c-6.11062,0 -9.31675,-5.11223 -11.00124,-12.04596c-0.75816,-3.29074 -1.22266,-6.93372 -1.50296,-10.60209c-0.30433,-4.36016 -0.34437,-8.79965 -0.34437,-12.78218c0,-3.15111 0.04805,-6.28002 0.19754,-9.28516c0.33103,-5.48351 1.03045,-10.88769 2.37591,-15.3367c1.85267,-5.45178 4.99474,-8.95514 10.27512,-8.95514c6.67389,0 10.04554,5.65488 11.706,13.71513c1.14524,6.01029 1.49495,13.08682 1.49495,19.90947c0,7.29549 -0.27496,16.35217 -2.03687,23.61593c-1.76458,6.78775 -5.0508,11.7667 -11.16408,11.7667z" stroke-dasharray="2,2" stroke-width="0" fill="#000000"/>
  <path stroke="#000" id="svg_11" d="m488.49429,364.31895l-74.85999,0c-22.05427,0 -42.58291,-32.59589 -42.58291,-69.69486l0,-26.91552l116.5711,0c18.8577,0 34.15558,-21.61777 34.15558,-48.28312c0,-26.68006 -15.29788,-48.29783 -34.15558,-48.29783l-116.5711,0l0,-47.69448c0,-27.00382 -14.27041,-48.90119 -33.12811,-48.90119c-18.84732,0 -34.1452,21.89737 -34.1452,48.90119l0,171.19094c0,91.68053 48.62319,165.90791 108.72497,165.90791l74.83923,0c18.86808,0 34.4358,-21.52947 34.4358,-48.53329s-14.42609,-47.67976 -33.28379,-47.67976z" stroke-dasharray="2,2" stroke-width="0" fill="#000000"/>
  <path id="svg_16" d="m575.64924,384.2304c-0.04014,0 -0.07267,0.03254 -0.07267,0.07267c0,0.04014 0.03254,0.07267 0.07267,0.07267c0.04014,0 0.07267,-0.03254 0.07267,-0.07267c0,-0.04014 -0.03254,-0.07267 -0.07267,-0.07267zm0.04193,0.06751c-0.00726,0.00835 -0.01853,0.01111 -0.02843,0.00793l-0.03594,0.04133c-0.00383,0.0044 -0.0105,0.00485 -0.0149,0.00103s-0.00487,-0.0105 -0.00104,-0.0149l0.03599,-0.04138c-0.00447,-0.00933 -0.00329,-0.02082 0.00394,-0.02912c0.00684,-0.00788 0.01727,-0.01076 0.02674,-0.00837l-0.01377,0.01606l0.00451,0.01311l0.01361,0.00265l0.01381,-0.0161c0.00374,0.00907 0.00237,0.01986 -0.00452,0.02777z" stroke-dasharray="2,2" stroke-width="0" stroke="#000" fill="#000000"/>
  <path id="svg_19" d="m585.80202,368.15648c-0.04014,0 -0.07267,0.03254 -0.07267,0.07267c0,0.04014 0.03254,0.07267 0.07267,0.07267c0.04014,0 0.07267,-0.03254 0.07267,-0.07267c0,-0.04014 -0.03254,-0.07267 -0.07267,-0.07267zm0.04193,0.06751c-0.00726,0.00835 -0.01853,0.01111 -0.02843,0.00793l-0.03594,0.04133c-0.00383,0.0044 -0.0105,0.00485 -0.0149,0.00103s-0.00487,-0.0105 -0.00104,-0.0149l0.03599,-0.04138c-0.00447,-0.00933 -0.00329,-0.02082 0.00394,-0.02912c0.00684,-0.00788 0.01727,-0.01076 0.02674,-0.00837l-0.01377,0.01606l0.00451,0.01311l0.01361,0.00265l0.01381,-0.0161c0.00374,0.00907 0.00237,0.01986 -0.00452,0.02777z" stroke-dasharray="2,2" stroke-width="0" stroke="#000" fill="#000000"/>
  <path id="svg_21" d="m563.91208,389.3831c-0.04014,0 -0.07267,0.03254 -0.07267,0.07267c0,0.04014 0.03254,0.07267 0.07267,0.07267c0.04014,0 0.07267,-0.03254 0.07267,-0.07267c0,-0.04014 -0.03254,-0.07267 -0.07267,-0.07267zm0.04193,0.06751c-0.00726,0.00835 -0.01853,0.01111 -0.02843,0.00793l-0.03594,0.04133c-0.00383,0.0044 -0.0105,0.00485 -0.0149,0.00103s-0.00487,-0.0105 -0.00104,-0.0149l0.03599,-0.04138c-0.00447,-0.00933 -0.00329,-0.02082 0.00394,-0.02912c0.00684,-0.00788 0.01727,-0.01076 0.02674,-0.00837l-0.01377,0.01606l0.00451,0.01311l0.01361,0.00265l0.01381,-0.0161c0.00374,0.00907 0.00237,0.01986 -0.00452,0.02777z" stroke-dasharray="2,2" stroke-width="0" stroke="#000" fill="#000000"/>
  <path id="svg_22" d="m599.73202,381.42313c-0.04014,0 -0.07267,0.03254 -0.07267,0.07267c0,0.04014 0.03254,0.07267 0.07267,0.07267c0.04014,0 0.07267,-0.03254 0.07267,-0.07267c0,-0.04014 -0.03254,-0.07267 -0.07267,-0.07267zm0.04193,0.06751c-0.00726,0.00835 -0.01853,0.01111 -0.02843,0.00793l-0.03594,0.04133c-0.00383,0.0044 -0.0105,0.00485 -0.0149,0.00103s-0.00487,-0.0105 -0.00104,-0.0149l0.03599,-0.04138c-0.00447,-0.00933 -0.00329,-0.02082 0.00394,-0.02912c0.00684,-0.00788 0.01727,-0.01076 0.02674,-0.00837l-0.01377,0.01606l0.00451,0.01311l0.01361,0.00265l0.01381,-0.0161c0.00374,0.00907 0.00237,0.01986 -0.00452,0.02777z" stroke-dasharray="2,2" stroke-width="0" stroke="#000" fill="#000000"/>
  <path d="m567.88992,94.49541c0,0.91743 0,1.83486 0,2.7523c0,0.91743 0,1.83486 0,2.7523c0,0.91743 0,1.83486 0,2.75229c0,0.91743 0,1.83486 0,2.7523c0,0.91743 -0.91745,1.83486 -0.91745,2.75229c0,0.91743 0,3.66973 0,4.58716c0,2.7523 0,5.50459 0,8.25688c0,1.83486 0,5.50459 0,6.42202c0,5.50459 -0.44089,8.29242 0,11.00917c0.46472,2.86371 0.91745,5.50459 0.91745,8.25688c0,3.66972 0.45526,8.17229 0.91742,11.92661c0.44836,3.64223 0.91742,7.33945 0.91742,11.00917c0,4.58716 0.05637,10.08395 0.91745,16.51376c0.98178,7.33112 0.5061,17.44145 0.91742,25.68808c0.45929,9.20862 0.96283,20.17857 1.83487,28.44037c0.9678,9.16913 0.76672,18.36494 1.83487,27.52293c1.60837,13.78976 3.2771,27.58997 5.50458,39.44952c1.56137,8.31296 4.90604,19.16653 7.33945,27.52295c2.11517,7.26361 3.60162,13.80087 7.33945,20.1835c2.70334,4.61615 6.75226,14.31998 13.76144,21.10089c9.37146,9.06625 26.12354,18.01575 44.03674,22.93579c24.29218,6.67209 48.62384,4.58716 68.80731,4.58716c11.92664,0 16.51379,0 18.34863,0l0,-0.91742l1.83484,-1.83487" id="svg_23" stroke-dasharray="2,2" stroke-width="0" stroke="#000" fill="none"/>
  <path stroke="#000" id="svg_24" d="m687.28965,446.20924c24.4199,-2.53222 34.74873,-27.47158 29.75697,-46.13998c-8.5878,-29.48984 -42.18463,-49.86921 -75.89177,-53.18246c-12.78901,-0.91974 -26.88994,-0.76389 -37.4229,6.25786c-8.64426,-2.99099 -2.56242,-14.78708 -4.14016,-21.85727c0,-87.0098 0,-174.01965 0,-261.02944c-21.73838,-2.75891 -7.70136,24.05724 -11.53555,35.04053c0.14404,96.04312 -0.90184,192.09588 1.10319,288.12988c10.60043,35.89191 57.17559,58.63079 98.13021,52.78089zm-4.12962,-15.68916c-33.36113,-9.24205 -64.40796,-28.53024 -80.27989,-56.25746c-1.38672,-17.14054 23.23063,-13.575 34.35809,-7.78761c19.59786,8.55497 38.04311,19.7927 53.32673,33.52326c10.14899,8.12513 23.06719,33.0996 -1.14222,31.68267l-3.34422,-0.41121l-2.91846,-0.74967l0,0l-0.00003,0.00001z" stroke-dasharray="2,2" stroke-width="0" fill="#000000"/>
 </g>
</svg>